<?xml version="1.0" encoding="utf-8"?>
<!-- Generator: Adobe Illustrator 23.0.3, SVG Export Plug-In . SVG Version: 6.00 Build 0)  -->
<svg version="1.1" id="Layer_1" xmlns="http://www.w3.org/2000/svg" xmlns:xlink="http://www.w3.org/1999/xlink" x="0px" y="0px"
	 viewBox="0 0 1200 1200" enable-background="new 0 0 1200 1200" xml:space="preserve">
<g>
	<g>
		<path fill="#F44C02" d="M816.655,634.182c-20.422,114.584-134.44,201.237-251.888,180.305
			c-117.448-20.932-218.48-130.547-198.059-245.13s133.268-196.101,250.716-175.169
			C734.872,415.121,837.076,519.599,816.655,634.182z"/>
		<path fill="#F44C02" d="M438.083,528.9l-284.17-175.611c0,0-55.516,65.691-65.526,168.783c0,0,14.013-2.207,14.462,19.511
			s-7.529,68.533-7.529,68.533L64.588,638.23l7.519,85.476c0,0,201.908-32.293,346.503-85.767L438.083,528.9z"/>
		<path fill="#F44C02" d="M759.03,566.997c0,0,131.666-91.549,218.09-115.063l8.154,23.476c0,0,47.313-29.735,53.26-20.272
			c5.947,9.463-0.46,132.291-0.46,132.291s51.365,11.719,12.88,97.507l-48.348,10.585c0,0,35.233,35.058,27.977,55.018
			c-7.256,19.96-29.248,68.982-29.248,68.982S833.05,716.279,773.17,694.512C713.289,672.745,759.03,566.997,759.03,566.997z"/>
		<g>
			<defs>
				<path id="SVGID_1_" d="M816.655,634.182c-20.422,114.584-134.44,201.237-251.888,180.305
					c-117.448-20.932-218.48-130.547-198.059-245.13s133.268-196.101,250.716-175.169
					C734.872,415.121,837.076,519.599,816.655,634.182z"/>
			</defs>
			<clipPath id="SVGID_2_">
				<use xlink:href="#SVGID_1_"  overflow="visible"/>
			</clipPath>
			<g clip-path="url(#SVGID_2_)">
				<path fill="#E8D5C8" d="M319.288,713.329c17.086-31.556,54.529-47.271,73.891-77.484c20.099-31.363,17.366-72.854,35.44-105.426
					c13.92-25.087,38.752-42.316,54.87-66.051c18.83-27.729,25.738-64.134,51.578-85.483c9.679-7.996,21.311-13.19,32.784-18.287
					c9.346-4.152,18.692-8.304,28.038-12.456c14.582,3.77,28.845,11.489,39.968,21.645c-27.336,2.976-50.296,22.413-66.564,44.582
					c-16.268,22.169-27.577,47.593-43.083,70.301c-24.586,36.005-59.711,65.25-76.74,105.386c-6.401,15.088-9.989,31.2-15.34,46.691
					c-15.743,45.574-47.285,85.522-87.966,111.406C336.094,736.383,329.357,725.099,319.288,713.329z"/>
				<path fill="#E8D5C8" d="M625.18,431.54c-15.82,30.944-25.537,64.907-40.26,96.443c-15.166,32.484-35.441,61.976-52.699,93.28
					c-16.038,29.092-29.475,59.785-40.053,91.49c-10.417,31.219-18.116,64.808-12.076,96.707
					c18.836,10.981,39.253,18.943,60.407,23.558c-13.716-49.385,6.796-104.382,36.903-146.286
					c10.946-15.236,23.233-29.505,32.262-46.099c22.048-40.521,22.388-90.303,41.448-132.468
					c16.927-37.445,47.093-65.81,74.021-95.898c1.281-1.431,2.638-3.064,2.713-5.018c0.077-1.983-1.19-3.645-2.386-5.102
					c-17.005-20.721-27.883-46.178-55.026-27.136C651.047,388.611,636.203,410.011,625.18,431.54z"/>
				<path fill="#E8D5C8" d="M681.585,573.749c-6.912,17.951-11.978,36.555-16.646,55.215
					c-16.692,66.723-28.172,138.568-4.431,203.121c15.853-5.346,31.706-10.692,47.56-16.038c1.549-0.522,3.165-1.087,4.283-2.279
					c2.403-2.563,1.5-6.657,0.508-10.028c-17.589-59.72-14.918-125.213,7.477-183.302c3.371-8.744,7.24-17.435,13.105-24.744
					c4.544-5.664,10.202-10.389,14.475-16.26c15.554-21.369,10.456-54.15,29.327-72.655c6.046-5.929,14.143-9.831,18.886-16.85
					c6.598-9.766,3.994-42.615-10.844-45.683c-10.934-2.261-36.202,27.387-43.372,34.857
					C715.84,506.268,695.119,538.599,681.585,573.749z"/>
			</g>
		</g>
		<g>
			<defs>
				<path id="SVGID_3_" d="M438.083,528.9l-284.17-175.611c0,0-55.516,65.691-65.526,168.783c0,0,14.013-2.207,14.462,19.511
					s-7.529,68.533-7.529,68.533L64.588,638.23l7.519,85.476c0,0,201.908-32.293,346.503-85.767L438.083,528.9z"/>
			</defs>
			<clipPath id="SVGID_4_">
				<use xlink:href="#SVGID_3_"  overflow="visible"/>
			</clipPath>
			<path clip-path="url(#SVGID_4_)" fill="#E8D5C8" d="M214.285,354.015c-26.471,20.463-51.872,43.374-68.76,72.258
				c-16.888,28.883-24.391,64.699-13.557,96.355c1.416,4.137,3.225,8.313,6.468,11.248c2.948,2.667,6.966,4.201,9.202,7.488
				c5.527,8.121-3.419,17.929-7.066,27.05c-5.457,13.644,0.72,31.985-10.084,41.946c-7.684,7.085-20.77,6.081-27.721,13.886
				c-6.258,7.027-4.708,17.84-2.369,26.955c6.672,26,16.716,51.133,29.801,74.57c1.079,1.932,2.289,3.96,4.273,4.94
				c2.082,1.028,4.549,0.676,6.84,0.3c11.061-1.815,22.122-3.63,33.184-5.445c-23.156-24.853-38.032-57.258-43.333-90.811
				c-0.454-2.872-0.793-5.995,0.635-8.527c1.49-2.642,4.508-3.957,7.32-5.095c8.645-3.501,17.29-7.002,25.935-10.503
				c3.138-1.271,6.746-3.125,7.146-6.487c0.454-3.818-3.516-6.566-5.075-10.081c-1.47-3.314-0.701-7.143,0.092-10.68
				c2.823-12.589,5.645-25.178,8.468-37.766c0.529-2.359,1.058-4.817,0.498-7.168c-1.896-7.955-12.906-8.141-20.383-11.455
				c-7.996-3.544-12.864-12.197-13.867-20.886s1.299-17.428,4.349-25.625c18.056-48.528,65.016-84.99,116.504-90.459
				c-10.788-16.12-23.869-30.703-38.727-43.172C219.734,343.223,218.749,350.564,214.285,354.015z"/>
		</g>
		<g>
			<defs>
				<path id="SVGID_5_" d="M759.03,566.997c0,0,131.666-91.549,218.09-115.063l8.154,23.476c0,0,47.313-29.735,53.26-20.272
					c5.947,9.463-0.46,132.291-0.46,132.291s51.365,11.719,12.88,97.507l-48.348,10.585c0,0,35.233,35.058,27.977,55.018
					c-7.256,19.96-29.248,68.982-29.248,68.982S833.05,716.279,773.17,694.512C713.289,672.745,759.03,566.997,759.03,566.997z"/>
			</defs>
			<clipPath id="SVGID_6_">
				<use xlink:href="#SVGID_5_"  overflow="visible"/>
			</clipPath>
			<path clip-path="url(#SVGID_6_)" fill="#E8D5C8" d="M935.188,437.833c4.565,13.549,9.13,27.098,13.695,40.647
				c0.425,1.262,0.901,2.599,1.951,3.419c2.13,1.663,5.18,0.361,7.644-0.749c10.425-4.696,22.785-4.896,33.357-0.541
				c5.948,17.103,8.179,35.488,6.494,53.517c-1.437,15.383-4.441,34.042,7.761,43.519c5.434,4.221,12.742,5.337,18.349,9.324
				c12.115,8.614,11.897,26.152,13.373,40.944c1.19,11.92,4.121,24.694-1.378,35.336c-4.631,8.962-14.351,14.209-24.095,16.821
				c-9.744,2.612-19.944,3.126-29.738,5.541c-2.828,0.697-6.13,2.128-6.461,5.021c-0.562,4.909,7.085,5.798,10.257,9.586
				c2.454,2.93,1.841,7.224,1.992,11.043c0.389,9.835,6.646,18.548,8.056,28.289c2.322,16.043-8.66,30.759-19.735,42.597
				c-12.678,13.552-26.354,26.171-40.879,37.721c-9.114-8.363-17.459-19.453-26.573-27.816
				c14.934-11.846,28.095-25.924,38.909-41.622c2.816-4.087,5.558-8.535,5.82-13.491c0.415-7.849-5.44-14.83-5.833-22.68
				c-0.324-6.46,3.098-12.642,2.949-19.109c-0.149-6.467-7.582-13.334-12.529-9.167c2.731-7.343,11.407-10.672,19.236-10.984
				s15.703,1.483,23.464,0.415c19.894-2.736,32.67-23.241,36.578-42.938c3.065-15.45,0.752-34.555-13.08-42.091
				c-5.657-3.082-12.567-3.76-17.609-7.77c-8.348-6.639-8.165-19.044-8.578-29.703c-0.569-14.713-3.715-29.323-9.252-42.965
				c-1.208-2.976-2.62-6.027-5.143-8.013c-8.276-6.516-20.484,2.594-30.72,0.108c-3.963-16.189-11.367-31.527-21.577-44.701
				C920.278,450.38,926.803,444.795,935.188,437.833z"/>
		</g>
	</g>
	<g>
		<path fill="#CA6EA0" d="M959.957,943.336c5.326,90.786-65.551,177.374-158.606,182.834s-189.769-59.456-195.095-150.242
			S671.85,802.67,764.906,797.21C857.961,791.751,954.63,852.55,959.957,943.336z"/>
		<path fill="#CA6EA0" d="M653.132,932.201L405.249,850.45c0,0-30.236,60.017-19.089,140.177c0,0,10.247-4.226,14.539,12.195
			c4.292,16.422,6.746,53.447,6.746,53.447l-18.238,26.954l21.263,63.584c0,0,147.553-61.269,247.702-128.207L653.132,932.201z"/>
		<path fill="#CA6EA0" d="M903.946,902.765c0,0,83.398-93.519,144.792-127.109l10.467,16.356c0,0,30.543-31.202,36.784-25.094
			c6.24,6.109,23.716,100.61,23.716,100.61s41.164-0.439,27.525,71.751l-34.814,16.839c0,0,33.151,20.231,31.268,36.718
			c-1.882,16.487-9.676,57.739-9.676,57.739s-146.659-47.837-196.121-53.485C888.425,991.443,903.946,902.765,903.946,902.765z"/>
		<g>
			<defs>
				<path id="SVGID_7_" d="M959.957,943.336c5.326,90.786-65.551,177.374-158.606,182.834s-189.769-59.456-195.095-150.242
					S671.85,802.67,764.906,797.21C857.961,791.751,954.63,852.55,959.957,943.336z"/>
			</defs>
			<clipPath id="SVGID_8_">
				<use xlink:href="#SVGID_7_"  overflow="visible"/>
			</clipPath>
			<g clip-path="url(#SVGID_8_)">
				<path fill="#E8D5C8" d="M596.411,1093.957c7.243-27.087,32.837-45.84,42.054-72.321c9.568-27.489-0.057-58.52,7.752-86.559
					c6.014-21.595,21.75-39.205,29.68-60.173c9.265-24.497,7.891-53.417,23.643-74.341c5.9-7.837,13.794-13.9,21.586-19.86
					c6.347-4.855,12.693-9.71,19.04-14.565c11.767,0.212,24.009,3.483,34.309,9.177c-20.231,7.234-34.142,26.181-42.471,45.986
					c-8.329,19.805-12.298,41.182-19.95,61.259c-12.133,31.832-33.504,60.445-39.143,94.041c-2.12,12.629-1.915,25.526-3.163,38.271
					c-3.672,37.495-20.374,73.589-46.578,100.658C613.376,1108.417,606.204,1101.069,596.411,1093.957z"/>
				<path fill="#E8D5C8" d="M777.594,824.182c-6.392,26.391-7.597,53.968-13.049,80.61c-5.615,27.443-15.657,53.542-23.076,80.469
					c-6.895,25.024-11.522,50.792-13.793,76.808c-2.236,25.618-1.976,52.543,8.416,75.683c16.311,4.918,33.274,7.254,50.188,6.912
					c-19.407-35.032-13.824-80.555,1.43-117.874c5.546-13.569,12.287-26.647,16.13-40.899c9.383-34.802,0.585-72.693,7.398-108.201
					c6.051-31.533,23.814-58.575,38.802-86.337c0.713-1.321,1.447-2.808,1.149-4.307c-0.302-1.521-1.567-2.553-2.741-3.443
					c-16.691-12.652-29.588-30.018-46.75-10.611C789.44,786.856,782.054,805.817,777.594,824.182z"/>
				<path fill="#E8D5C8" d="M846.325,921.984c-1.987,14.898-2.452,29.956-2.605,44.985c-0.546,53.739,3.8,110.421,33.583,155.155
					c11.074-6.946,22.148-13.893,33.222-20.839c1.082-0.679,2.207-1.401,2.84-2.511c1.36-2.385-0.071-5.332-1.438-7.712
					c-24.23-42.181-34.114-92.434-27.664-140.649c0.971-7.258,2.33-14.565,5.457-21.187c2.423-5.13,5.862-9.751,8.041-14.989
					c7.932-19.067-1.905-43.05,9.069-60.545c3.516-5.605,8.958-10.043,11.286-16.24c3.237-8.621-4.717-33.109-16.55-32.741
					c-8.72,0.271-22.527,27.396-26.617,34.378C860.079,864.475,850.215,892.812,846.325,921.984z"/>
			</g>
		</g>
		<g>
			<defs>
				<path id="SVGID_9_" d="M653.132,932.201L405.249,850.45c0,0-30.236,60.017-19.089,140.177c0,0,10.247-4.226,14.539,12.195
					c4.292,16.422,6.746,53.447,6.746,53.447l-18.238,26.954l21.263,63.584c0,0,147.553-61.269,247.702-128.207L653.132,932.201z"/>
			</defs>
			<clipPath id="SVGID_10_">
				<use xlink:href="#SVGID_9_"  overflow="visible"/>
			</clipPath>
			<path clip-path="url(#SVGID_10_)" fill="#E8D5C8" d="M451.257,840.02c-16.392,20.365-31.526,42.396-39.105,67.416
				c-7.579,25.02-6.765,53.601,7.226,75.685c1.829,2.886,3.963,5.731,6.961,7.37c2.725,1.491,6.057,1.925,8.355,4.016
				c5.677,5.166,0.664,14.246-0.449,21.841c-1.664,11.36,6.365,24.174-0.032,33.709c-4.55,6.781-14.676,8.399-18.538,15.595
				c-3.477,6.478-0.333,14.413,3.103,20.913c9.8,18.543,22.004,35.814,36.211,51.244c1.171,1.272,2.46,2.593,4.145,2.977
				c1.769,0.403,3.58-0.314,5.252-1.016c8.075-3.391,16.15-6.783,24.225-10.174c-22.117-14.673-39.316-36.591-49.448-61.123
				c-0.867-2.1-1.693-4.411-1.069-6.595c0.651-2.279,2.706-3.827,4.635-5.203c5.932-4.233,11.865-8.466,17.797-12.699
				c2.153-1.536,4.558-3.602,4.25-6.229c-0.35-2.984-3.866-4.35-5.691-6.737c-1.72-2.251-1.832-5.3-1.873-8.132
				c-0.145-10.08-0.29-20.159-0.435-30.239c-0.027-1.889-0.072-3.853-0.926-5.537c-2.888-5.7-11.288-3.838-17.573-4.996
				c-6.721-1.238-11.994-6.928-14.337-13.349c-2.343-6.42-2.183-13.479-1.357-20.263c4.892-40.161,33.944-76.41,72.074-89.933
				c-11.13-10.287-23.723-18.989-37.282-25.761C453.434,830.827,454.021,836.585,451.257,840.02z"/>
		</g>
		<g>
			<defs>
				<path id="SVGID_11_" d="M903.946,902.765c0,0,83.398-93.519,144.792-127.109l10.467,16.356c0,0,30.543-31.202,36.784-25.094
					c6.24,6.109,23.716,100.61,23.716,100.61s41.164-0.439,27.525,71.751l-34.814,16.839c0,0,33.151,20.231,31.268,36.718
					c-1.882,16.487-9.676,57.739-9.676,57.739s-146.659-47.837-196.121-53.485C888.425,991.443,903.946,902.765,903.946,902.765z"/>
			</defs>
			<clipPath id="SVGID_12_">
				<use xlink:href="#SVGID_11_"  overflow="visible"/>
			</clipPath>
			<path clip-path="url(#SVGID_12_)" fill="#E8D5C8" d="M1014.31,772.57c5.934,9.465,11.867,18.931,17.801,28.396
				c0.553,0.882,1.158,1.811,2.105,2.243c1.921,0.876,4.002-0.668,5.672-1.959c7.067-5.465,16.423-7.865,25.249-6.479
				c7.631,11.914,12.671,25.479,14.67,39.486c1.706,11.951,2.818,26.676,13.814,31.658c4.897,2.219,10.653,1.738,15.64,3.747
				c10.773,4.342,13.797,17.708,17.61,28.68c3.073,8.841,7.624,18.015,5.381,27.102c-1.889,7.653-8.321,13.408-15.25,17.165
				c-6.929,3.758-14.586,6.003-21.589,9.621c-2.022,1.044-4.271,2.732-3.996,4.991c0.466,3.832,6.438,3.117,9.538,5.418
				c2.398,1.78,2.713,5.155,3.523,8.029c2.085,7.403,8.424,12.885,11.268,20.031c4.683,11.769-0.985,24.949-7.247,35.959
				c-7.169,12.604-15.265,24.681-24.202,36.1c-8.447-4.697-16.806-11.606-25.253-16.303c9.194-11.718,16.633-24.81,21.995-38.706
				c1.396-3.618,2.671-7.497,1.969-11.311c-1.112-6.04-6.832-10.28-8.558-16.173c-1.421-4.85,0.054-10.17-1.236-15.057
				c-1.29-4.887-8.187-8.753-11.188-4.687c0.739-6.077,6.727-10.184,12.619-11.846c5.892-1.662,12.202-1.73,17.906-3.953
				c14.619-5.698,20.598-23.603,19.984-39.282c-0.481-12.298-5.715-26.395-17.596-29.605c-4.859-1.313-10.234-0.571-14.794-2.701
				c-7.551-3.526-9.669-12.986-11.921-21.01c-3.109-11.077-8.157-21.606-14.847-30.966c-1.459-2.042-3.087-4.103-5.366-5.154
				c-7.474-3.446-15.094,5.698-23.324,5.67c-5.957-11.581-14.373-21.889-24.528-30.043
				C1005.262,784.816,1009.205,779.385,1014.31,772.57z"/>
		</g>
	</g>
	<g>
		<g>
			<path fill="#E6A501" d="M242.628,930.9c0,0,412.822-148.858,504.421-173.416c0,0,22.716-16.999,36.543,44.749
				c13.827,61.748,23.377,97.37,0.478,103.509c-22.9,6.139-499.332,172.051-499.332,172.051s-33.575,17.183-46.536-31.161
				C225.241,998.289,202.102,952.674,242.628,930.9z"/>
		</g>
		<g>
			<g>
				<path fill="#E6A501" d="M248.638,983.835L96.103,994.729c0,0-63.112,8.738-41.652,68.44
					c21.46,59.702,60.936,13.663,60.936,13.663s6.508,44.619,30.09,41.024c23.582-3.595,121.395-76.182,121.395-76.182
					L248.638,983.835z"/>
			</g>
		</g>
		<g>
			<path fill="#E6A501" d="M754.055,793.788l118.353-67.185c0,0,28.357,14.216,25.683,44.933c0,0-18.991,10.546-5.403,20.539
				s49.21,0.443,49.21,0.443s19.046,30.349,8.37,41.393c-10.676,11.044-181.704,24.168-181.704,24.168L754.055,793.788z"/>
		</g>
		<g>
			<path fill="#0070AB" d="M754.188,894.788c-0.669,0.355-1.354,0.689-2.054,1c-21.674,9.648-36.9,13.597-61.948,19.745
				c-5.805,1.425-11.709,2.747-17.419,4.025c-7.993,1.79-16.259,3.64-24.255,5.779c-15.487,4.139-30.56,9.482-45.925,15.05
				c-40.45,14.662-81.325,30.332-120.856,45.485c-67.222,25.77-136.732,52.416-206.46,75c-4.525,1.466-13.943,4.515-20.278-5.203
				c-1.641-2.516-2.708-5.528-3.169-8.95l-8.388-62.012c-0.899-6.642-2.017-14.91,0.775-22.73
				c2.935-8.23,12.576-14.793,21.481-14.627c10.299,0.188,21.827-6.086,32.97-12.16c6.57-3.578,13.362-7.277,19.91-9.623
				c72.651-26.039,147.775-52.963,219.515-84.441c2.993-1.313,5.982-2.636,8.973-3.958c13.917-6.155,28.309-12.519,42.913-17.894
				c18-6.622,36.688-11.876,54.761-16.957l92.54-26.011c3.363-0.945,7.969-2.24,12.684-0.893c5.58,1.596,9.795,6.383,12.185,13.845
				c3.489,10.899,3.025,22.184,2.578,33.099c-0.108,2.652-0.218,5.301-0.268,7.937c-0.206,10.718,1.072,19.011,3.907,25.358
				c3.197,7.157,3.39,15.183,0.547,22.6C766.174,885.38,760.992,891.181,754.188,894.788z M260.117,959.36
				c-2.727,1.446-5.134,3.774-5.985,6.159c-1.928,5.406-1.078,11.694-0.256,17.776l8.389,62.013
				c0.251,1.861,0.775,3.411,1.554,4.606c1.545,2.368,2.672,2.725,8.205,0.934c69.464-22.499,138.842-49.094,205.936-74.814
				c39.574-15.17,80.495-30.858,121.035-45.552c15.592-5.652,30.903-11.076,46.795-15.325c8.204-2.193,16.577-4.068,24.675-5.88
				c5.658-1.267,11.509-2.578,17.209-3.977c24.464-6.004,39.322-9.854,60.176-19.137c5.232-2.34,9.226-6.481,11.218-11.681
				c1.835-4.787,1.718-9.949-0.328-14.533c-3.529-7.899-5.061-17.385-4.823-29.854c0.051-2.711,0.163-5.438,0.276-8.169
				c0.429-10.456,0.835-20.334-2.086-29.453c-0.721-2.255-2.336-6.153-5.043-6.926c-1.843-0.527-4.668,0.268-6.938,0.906
				l-92.535,26.009c-17.881,5.027-36.367,10.224-53.978,16.704c-14.289,5.259-28.524,11.553-42.291,17.641
				c-2.999,1.326-5.998,2.653-9.001,3.971c-72.074,31.624-147.374,58.611-220.193,84.71c-5.782,2.071-11.923,5.414-18.425,8.958
				c-12.345,6.721-25.118,13.678-38.202,13.441C263.793,957.854,261.888,958.421,260.117,959.36z"/>
		</g>
		<g>
			<path fill="#0070AB" d="M175.796,1102.982c-5.124,2.716-11.423,3.24-17.394,1.423c-6.193-1.884-11.28-6.056-13.954-11.446
				c-1.704-3.437-2.4-6.943-3.074-10.335c-0.618-3.115-1.202-6.058-2.522-8.318c-2.182-3.743-6.882-6.502-14.368-8.434
				c-1.371-0.353-2.758-0.678-4.148-1.002c-5.892-1.378-11.983-2.802-17.474-6.388c-11.119-7.263-16.504-22.142-13.094-36.183
				c2.862-11.792,11.492-22.519,23.678-29.425c2.605-1.474,5.747-0.547,7.181,1.984c1.435,2.531,0.547,5.746-1.984,7.181
				c-9.664,5.478-16.456,13.77-18.635,22.746c-2.337,9.626,1.287,20.086,8.617,24.875c3.937,2.572,8.879,3.727,14.11,4.95
				c1.469,0.342,2.935,0.686,4.383,1.06c10.349,2.672,17.165,7.031,20.837,13.327c2.208,3.786,3.031,7.925,3.756,11.577
				c0.564,2.84,1.095,5.524,2.177,7.702c1.389,2.801,4.152,5.005,7.58,6.049c3.428,1.042,6.919,0.798,9.666-0.803
				c2.515-1.441,5.743-0.568,7.19,1.957c1.445,2.526,0.569,5.745-1.957,7.19C176.179,1102.775,175.988,1102.88,175.796,1102.982z"/>
		</g>
		<g>
			<path fill="#0070AB" d="M918.526,840.979c-0.97,0.516-1.995,0.95-3.061,1.295c-2.769,0.896-5.739-0.622-6.636-3.39
				c-0.896-2.767,0.621-5.732,3.389-6.634c2.283-0.736,4.101-2.375,4.777-4.285c0.597-1.681,0.166-3.789-0.983-4.798
				c-2.03-1.786-5.527-1.127-11.042,0.167c-2.954,0.694-6.007,1.411-9.15,1.557c-8.044,0.376-14.727-3.157-21.188-6.575
				c-4.122-2.179-8.014-4.237-11.979-5.12l-0.64-0.135c-1.911-0.402-4.526-0.952-6.738-2.956c-4.639-4.198-4.29-10.542,1.038-18.857
				c5.643-8.81,7.216-19.046,4.207-27.38c-3.141-8.71-12.033-14.861-20.246-14.003c-2.894,0.303-5.484-1.799-5.787-4.693
				c-0.304-2.892,1.799-5.483,4.691-5.787c13.03-1.361,26.466,7.627,31.255,20.907c4.11,11.394,2.149,25.09-5.249,36.641
				c-2.078,3.243-2.517,4.82-2.601,5.448c0.384,0.115,1.091,0.263,1.596,0.369l0.759,0.163c5.35,1.189,10.063,3.68,14.619,6.091
				c5.45,2.883,10.601,5.606,15.772,5.365c2.171-0.101,4.628-0.679,7.23-1.29c6.305-1.48,14.156-3.325,20.408,2.176
				c4.365,3.834,5.993,10.514,3.957,16.241C925.498,835.507,922.458,838.894,918.526,840.979z"/>
		</g>
		<g>
			<path fill="#0070AB" d="M713.194,864.139c-0.143,0.076-0.288,0.151-0.433,0.227c-11.577,5.981-24.324,7.956-36.652,9.865
				c-10.512,1.629-20.442,3.166-29.599,6.988c-11.302,4.715-20.778,12.621-30.814,20.991c-5.82,4.854-11.837,9.873-18.272,14.245
				c-17.083,11.604-36.992,18.571-57.579,20.15c-2.56,0.197-5.434,0.327-8.426,0.157c-9.584,7.02-21.064,11.417-32.932,12.443
				c-4.622,0.399-9.235,0.3-13.696,0.204c-7.463-0.159-14.51-0.31-20.93,1.797c-8.452,2.777-15.264,9.23-22.472,16.068
				c-1.558,1.475-3.109,2.947-4.676,4.378c-25.202,23.024-54.618,32.114-78.751,24.336c-20.56,24.417-42.12,37.442-64.147,38.73
				c-2.905,0.17-5.398-2.048-5.568-4.952c-0.171-2.904,2.046-5.398,4.952-5.568c18.362-1.074,36.748-12.066,54.739-32.703
				c-5.469-3.256-9.928-7.479-12.977-12.374c-5.801-9.311-6.203-20.871-1.026-29.449c5.939-9.825,19.092-13.933,28.731-8.971
				c8.887,4.576,13.621,15.695,11.516,27.04c-1.376,7.416-5.1,13.755-9.124,19.276c19.774,4.475,43.56-3.968,64.545-23.144
				c1.519-1.388,3.025-2.815,4.534-4.247c7.736-7.335,15.741-14.922,26.435-18.432c8.131-2.669,16.423-2.491,24.442-2.32
				c4.375,0.094,8.507,0.182,12.563-0.169c6.937-0.598,13.721-2.577,19.915-5.714c-6.544-3.826-12.014-11.698-10.406-20.217
				c0.956-5.055,4.24-9.163,9.133-11.843c6.341-3.319,14.73-3.551,21.374-0.588c4.695,2.093,7.813,5.05,9.272,8.79
				c1.414,3.632,1.799,9.356-3.79,16.578c17.318-1.989,33.988-8.162,48.424-17.974c6.007-4.08,11.822-8.93,17.446-13.62
				c10.196-8.503,20.732-17.294,33.505-22.624c10.338-4.313,21.373-6.022,32.044-7.676c12.022-1.862,23.377-3.62,33.426-8.813
				c3.404-1.758,7.799-4.749,8.703-8.626c0.426-1.835-0.294-4.063-1.877-5.817c-1.585-1.754-3.73-2.694-5.598-2.455
				c-2.886,0.37-5.526-1.671-5.894-4.558c-0.37-2.887,1.668-5.526,4.558-5.894c5.317-0.68,10.833,1.505,14.751,5.843
				c3.921,4.339,5.537,10.046,4.322,15.268C725.459,854.907,720.852,860.079,713.194,864.139z M521.06,910.294
				c-2.049,1.086-3.267,2.579-3.617,4.436c-0.701,3.714,2.474,7.738,5.95,9.481c1.526,0.766,3.194,1.272,4.917,1.595
				c1.909-1.623,3.704-3.38,5.369-5.26c2.709-3.059,4.001-5.967,3.371-7.587c-0.396-1.017-1.762-2.107-3.745-2.991
				c-3.696-1.648-8.71-1.525-12.196,0.3C521.093,910.276,521.076,910.285,521.06,910.294z M347.801,950.632
				c-1.959,1.039-3.688,2.572-4.844,4.487c-3.1,5.136-2.719,12.543,0.949,18.432c2.406,3.863,6.143,7.186,10.815,9.682
				c3.964-5.128,7.911-11.003,9.102-17.415c1.04-5.606-0.702-13.03-5.978-15.748C354.901,948.554,351.037,948.916,347.801,950.632z"
				/>
		</g>
	</g>
	<g>
		<g>
			<path fill="#0070AB" d="M383.191,797.675c0,0-110.785-56.957-157.265-76.709c0,0-36.044,9.924-23.958,58.96
				c12.086,49.035,54.754,36.438,50.037,55.286c-4.717,18.847-72.855,29.4-55.286,50.037c17.57,20.636,43.552,16.313,43.552,16.313
				l148.639-55.361L383.191,797.675z"/>
			<path fill="#0070AB" d="M667.83,804.499l160.863-47.971c0,0,9.296,3.95,19.987,30.443c10.691,26.493,19.987,30.443,6.485,38.973
				s-32.861,10.18-32.861,10.18s49.664,20.008,27.239,59.864c-22.425,39.857-43.69,25.333-47.896,37.812
				c-4.206,12.48-138.162-75.176-138.162-75.176L667.83,804.499z"/>
			<g>
				<defs>
					<path id="SVGID_13_" d="M383.191,797.675c0,0-110.785-56.957-157.265-76.709c0,0-36.044,9.924-23.958,58.96
						c12.086,49.035,54.754,36.438,50.037,55.286c-4.717,18.847-72.855,29.4-55.286,50.037
						c17.57,20.636,43.552,16.313,43.552,16.313l148.639-55.361L383.191,797.675z"/>
				</defs>
				<clipPath id="SVGID_14_">
					<use xlink:href="#SVGID_13_"  overflow="visible"/>
				</clipPath>
				<path clip-path="url(#SVGID_14_)" fill="#E8D5C8" d="M247.005,730.239c-9.433,11.628-13.298,27.581-10.232,42.237
					c1.674,8.001,5.259,15.476,9.277,22.595c3.287,5.826,6.909,11.507,11.402,16.462c4.88,5.382,10.744,9.859,15.193,15.602
					c6.137,7.922,9.234,17.858,10.412,27.81c1.178,9.952,0.553,20.018-0.073,30.02c-0.06,0.952-0.093,2.626,0.069,3.566
					c6.403-0.128,12.755-2.188,18.014-5.843c1.115-0.775,2.232-1.687,2.699-2.961c0.763-2.083-0.431-4.322-1.544-6.241
					c-6.029-10.397-10.873-21.671-12.467-33.583c-0.773-5.779-0.777-11.661-1.925-17.377c-2.426-12.08-9.738-22.524-16.975-32.496
					c-4.271-5.885-8.714-12.068-9.724-19.269c-1.525-10.865,5.252-21.354,13.694-28.362c1.962-1.629,4.248-3.627,3.938-6.158
					c-0.426-3.478-4.975-4.317-8.454-4.734c-7.042-0.844-13.714-3.528-20.29-6.187C249.055,727.614,248.575,728.303,247.005,730.239
					z"/>
			</g>
			<g>
				<defs>
					<path id="SVGID_15_" d="M667.83,804.499l160.863-47.971c0,0,9.296,3.95,19.987,30.443
						c10.691,26.493,19.987,30.443,6.485,38.973s-32.861,10.18-32.861,10.18s49.664,20.008,27.239,59.864
						c-22.425,39.857-43.69,25.333-47.896,37.812c-4.206,12.48-138.162-75.176-138.162-75.176L667.83,804.499z"/>
				</defs>
				<clipPath id="SVGID_16_">
					<use xlink:href="#SVGID_15_"  overflow="visible"/>
				</clipPath>
				<path clip-path="url(#SVGID_16_)" fill="#E8D5C8" d="M799.314,747.915c11.206,13.645,23.104,29.61,20.501,47.074
					c-1.491,10.002-7.738,18.794-15.411,25.381c-1.899,1.63-4.106,3.672-3.673,6.137c0.391,2.227,2.722,3.444,4.64,4.641
					c7.88,4.917,12.111,14.541,11.905,23.827c-0.206,9.286-4.381,18.161-10.224,25.381c-6.609,8.168-15.61,14.958-18.858,24.95
					c-0.809,2.49-1.238,5.135-2.512,7.422c-2.974,5.342-9.514,7.269-14.979,10.01c-7.245,3.632-13.379,9.447-17.393,16.488
					c-4.846-3.849-8.669-9.357-13.515-13.206c1.511-6.754,6.701-12.563,13.243-14.822c2.026-0.7,4.191-1.092,6.02-2.209
					c5.05-3.083,5.592-10.105,8.687-15.148c2.873-4.682,7.888-7.517,12.48-10.532c8.437-5.539,16.403-12.802,19.436-22.429
					c3.033-9.627-0.54-21.853-9.839-25.777c-3.653-1.542-8.533-2.372-9.583-6.195c-0.691-2.518,0.85-5.179,2.899-6.798
					c2.049-1.619,4.565-2.508,6.847-3.779c11.127-6.197,15.113-21.163,11.724-33.44s-12.595-22.127-22.644-29.952
					C788.23,752.011,790.149,750.844,799.314,747.915z"/>
			</g>
			<path fill="#0070AB" d="M382.563,765.581c43.22-23.334,85.873-40.396,134.882-43.648c49.009-3.252,109.135,18.484,148.499,47.86
				c12.051,8.993,23.025,19.676,30.943,32.459c5.134,8.288,9.008,18.324,6.245,27.673c-1.179,3.99-3.489,7.542-5.921,10.918
				c-24.875,34.537-65.182,56.02-107.021,63.833c-41.839,7.813-85.2,2.962-126.472-7.439c-25.165-6.342-49.961-14.795-72.606-27.472
				c-15.711-8.795-43.691-26.842-44.859-47.298C344.999,800.525,366.242,774.393,382.563,765.581z"/>
			<path fill="#E8D5C8" d="M624.449,816.826c4.623,34.354-47.961,75.992-104.303,71.47s-88.074-27.925-93.579-62.139
				c-5.48-34.057,39.278-68.353,95.807-67.949C579.837,758.617,619.303,778.593,624.449,816.826z"/>
			<path fill="#0070AB" d="M614.855,817.465c4.18,30.991-43.317,68.547-94.213,64.461s-79.562-25.199-84.539-56.064
				c-4.954-30.723,35.474-61.656,86.538-61.287C574.551,764.951,610.204,782.975,614.855,817.465z"/>
		</g>
		<path fill="#0070AB" d="M382.563,765.581c43.22-23.334,85.873-40.396,134.882-43.648c49.009-3.252,109.135,18.484,148.499,47.86
			c12.051,8.993,23.025,19.676,30.943,32.459c5.134,8.288,9.008,18.324,6.245,27.673c-1.179,3.99-3.489,7.542-5.921,10.918
			c-24.875,34.537-65.182,56.02-107.021,63.833c-41.839,7.813-85.2,2.962-126.472-7.439c-25.165-6.342-49.961-14.795-72.606-27.472
			c-15.711-8.795-43.691-26.842-44.859-47.298C344.999,800.525,366.242,774.393,382.563,765.581z"/>
		<path fill="#E8D5C8" d="M624.449,816.826c4.623,34.354-47.961,75.992-104.303,71.47s-88.074-27.925-93.579-62.139
			c-5.48-34.057,39.278-68.353,95.807-67.949C579.837,758.617,619.303,778.593,624.449,816.826z"/>
		<path fill="#0070AB" d="M614.855,817.465c4.18,30.991-43.317,68.547-94.213,64.461s-79.562-25.199-84.539-56.064
			c-4.954-30.723,35.474-61.656,86.538-61.287C574.551,764.951,610.204,782.975,614.855,817.465z"/>
		<path fill="#0070AB" d="M382.563,765.581c43.22-23.334,85.873-40.396,134.882-43.648c49.009-3.252,109.135,18.484,148.499,47.86
			c12.051,8.993,23.025,19.676,30.943,32.459c5.134,8.288,9.008,18.324,6.245,27.673c-1.179,3.99-3.489,7.542-5.921,10.918
			c-24.875,34.537-65.182,56.02-107.021,63.833c-41.839,7.813-85.2,2.962-126.472-7.439c-25.165-6.342-49.961-14.795-72.606-27.472
			c-15.711-8.795-43.691-26.842-44.859-47.298C344.999,800.525,366.242,774.393,382.563,765.581z"/>
		<path fill="#E8D5C8" d="M624.449,816.826c4.623,34.354-47.961,75.992-104.303,71.47s-88.074-27.925-93.579-62.139
			c-5.48-34.057,39.278-68.353,95.807-67.949C579.837,758.617,619.303,778.593,624.449,816.826z"/>
		<path fill="#0070AB" d="M614.855,817.465c4.18,30.991-43.317,68.547-94.213,64.461s-79.562-25.199-84.539-56.064
			c-4.954-30.723,35.474-61.656,86.538-61.287C574.551,764.951,610.204,782.975,614.855,817.465z"/>
	</g>
	<g>
		<g>
			<path fill="#43563E" d="M221.081,210.565c0,0-55.215-44.209-78.848-60.451c0,0-21.179,1.451-19.992,30.103
				s26.353,26.462,21.599,36.417c-4.754,9.955-43.863,8.131-36.417,21.599c7.446,13.468,22.392,13.997,22.392,13.997l88.967-14.016
				L221.081,210.565z"/>
			<path fill="#43563E" d="M378.703,246.515l94.935-8.523c0,0,4.727,3.248,7.683,19.199s7.683,19.199-0.794,22.42
				s-19.436,1.953-19.436,1.953s25.376,16.744,8.395,36.39s-27.174,9.162-30.924,15.631c-3.75,6.47-68.391-57.44-68.391-57.44
				L378.703,246.515z"/>
			<g>
				<defs>
					<path id="SVGID_17_" d="M221.081,210.565c0,0-55.215-44.209-78.848-60.451c0,0-21.179,1.451-19.992,30.103
						s26.353,26.462,21.599,36.417c-4.754,9.955-43.863,8.131-36.417,21.599c7.446,13.468,22.392,13.997,22.392,13.997
						l88.967-14.016L221.081,210.565z"/>
				</defs>
				<clipPath id="SVGID_18_">
					<use xlink:href="#SVGID_17_"  overflow="visible"/>
				</clipPath>
				<path clip-path="url(#SVGID_18_)" fill="#E8D5C8" d="M152.915,157.655c-6.563,5.405-10.516,13.846-10.465,22.348
					c0.028,4.642,1.178,9.206,2.61,13.621c1.171,3.613,2.545,7.184,4.486,10.448c2.108,3.546,4.865,6.7,6.692,10.398
					c2.52,5.102,3.121,10.98,2.653,16.651s-1.953,11.202-3.432,16.697c-0.141,0.523-0.348,1.451-0.365,1.992
					c3.578,0.652,7.345,0.223,10.684-1.217c0.708-0.305,1.433-0.686,1.837-1.343c0.66-1.073,0.248-2.454-0.154-3.647
					c-2.18-6.467-3.602-13.287-3.144-20.096c0.222-3.303,0.885-6.576,0.892-9.887c0.015-6.996-2.874-13.634-5.775-20.001
					c-1.712-3.757-3.486-7.7-3.235-11.821c0.379-6.218,5.335-11.29,10.824-14.236c1.276-0.685,2.774-1.539,2.887-2.982
					c0.156-1.983-2.281-2.964-4.17-3.589c-3.824-1.265-7.233-3.513-10.592-5.735C154.352,156.426,154.008,156.755,152.915,157.655z"
					/>
			</g>
			<g>
				<defs>
					<path id="SVGID_19_" d="M378.703,246.515l94.935-8.523c0,0,4.727,3.248,7.683,19.199s7.683,19.199-0.794,22.42
						s-19.436,1.953-19.436,1.953s25.376,16.744,8.395,36.39s-27.174,9.162-30.924,15.631c-3.75,6.47-68.391-57.44-68.391-57.44
						L378.703,246.515z"/>
				</defs>
				<clipPath id="SVGID_20_">
					<use xlink:href="#SVGID_19_"  overflow="visible"/>
				</clipPath>
				<path clip-path="url(#SVGID_20_)" fill="#E8D5C8" d="M458.262,229.88c4.695,8.859,9.512,19.087,6.09,28.511
					c-1.96,5.397-6.429,9.584-11.443,12.383c-1.241,0.693-2.7,1.58-2.737,3c-0.034,1.283,1.125,2.224,2.058,3.107
					c3.83,3.626,5.097,9.46,3.933,14.604c-1.164,5.144-4.489,9.611-8.556,12.969c-4.601,3.798-10.376,6.56-13.312,11.754
					c-0.732,1.294-1.269,2.718-2.236,3.847c-2.258,2.637-6.115,2.971-9.466,3.878c-4.442,1.203-8.512,3.746-11.541,7.21
					c-2.262-2.689-3.767-6.186-6.029-8.875c1.604-3.588,5.148-6.234,9.044-6.752c1.206-0.16,2.455-0.134,3.6-0.549
					c3.158-1.145,4.254-4.991,6.545-7.448c2.127-2.281,5.239-3.292,8.134-4.451c5.321-2.13,10.574-5.271,13.349-10.286
					s2.168-12.222-2.563-15.456c-1.859-1.271-4.481-2.284-4.633-4.53c-0.1-1.479,1.058-2.786,2.381-3.455
					c1.323-0.67,2.824-0.88,4.237-1.329c6.892-2.192,10.8-10.069,10.302-17.284s-4.509-13.736-9.218-19.225
					C451.631,230.908,452.831,230.475,458.262,229.88z"/>
			</g>
			<path fill="#43563E" d="M224.357,192.634c26.686-8.103,52.349-12.779,79.988-9.053c27.639,3.727,58.643,22.614,77.229,43.407
				c5.69,6.366,10.59,13.55,13.552,21.558c1.921,5.192,2.943,11.215,0.349,16.105c-1.107,2.087-2.794,3.803-4.528,5.407
				c-17.744,16.409-42.6,23.81-66.765,23.432c-24.165-0.378-47.746-7.976-69.538-18.426c-13.287-6.372-26.13-13.877-37.3-23.489
				c-7.749-6.669-21.281-19.872-19.62-31.387C199.507,207.837,214.279,195.694,224.357,192.634z"/>
			<path fill="#E8D5C8" d="M353.17,248.474c-1.308,19.639-35.273,36.869-66.115,27.989c-30.842-8.881-45.856-25.488-45.055-45.149
				c0.797-19.571,29.578-33.599,60.989-26.989C334.921,211.043,354.626,226.618,353.17,248.474z"/>
			<path fill="#43563E" d="M347.76,247.746c-1.175,17.718-31.848,33.251-59.708,25.229c-27.861-8.022-41.428-23.01-40.71-40.748
				c0.714-17.656,26.705-30.303,55.079-24.329C331.264,213.971,349.067,228.028,347.76,247.746z"/>
		</g>
		<path fill="#43563E" d="M224.357,192.634c26.686-8.103,52.349-12.779,79.988-9.053c27.639,3.727,58.643,22.614,77.229,43.407
			c5.69,6.366,10.59,13.55,13.552,21.558c1.921,5.192,2.943,11.215,0.349,16.105c-1.107,2.087-2.794,3.803-4.528,5.407
			c-17.744,16.409-42.6,23.81-66.765,23.432c-24.165-0.378-47.746-7.976-69.538-18.426c-13.287-6.372-26.13-13.877-37.3-23.489
			c-7.749-6.669-21.281-19.872-19.62-31.387C199.507,207.837,214.279,195.694,224.357,192.634z"/>
		<path fill="#E8D5C8" d="M353.17,248.474c-1.308,19.639-35.273,36.869-66.115,27.989c-30.842-8.881-45.856-25.488-45.055-45.149
			c0.797-19.571,29.578-33.599,60.989-26.989C334.921,211.043,354.626,226.618,353.17,248.474z"/>
		<path fill="#43563E" d="M347.76,247.746c-1.175,17.718-31.848,33.251-59.708,25.229c-27.861-8.022-41.428-23.01-40.71-40.748
			c0.714-17.656,26.705-30.303,55.079-24.329C331.264,213.971,349.067,228.028,347.76,247.746z"/>
		<path fill="#43563E" d="M224.357,192.634c26.686-8.103,52.349-12.779,79.988-9.053c27.639,3.727,58.643,22.614,77.229,43.407
			c5.69,6.366,10.59,13.55,13.552,21.558c1.921,5.192,2.943,11.215,0.349,16.105c-1.107,2.087-2.794,3.803-4.528,5.407
			c-17.744,16.409-42.6,23.81-66.765,23.432c-24.165-0.378-47.746-7.976-69.538-18.426c-13.287-6.372-26.13-13.877-37.3-23.489
			c-7.749-6.669-21.281-19.872-19.62-31.387C199.507,207.837,214.279,195.694,224.357,192.634z"/>
		<path fill="#E8D5C8" d="M353.17,248.474c-1.308,19.639-35.273,36.869-66.115,27.989c-30.842-8.881-45.856-25.488-45.055-45.149
			c0.797-19.571,29.578-33.599,60.989-26.989C334.921,211.043,354.626,226.618,353.17,248.474z"/>
		<path fill="#43563E" d="M347.76,247.746c-1.175,17.718-31.848,33.251-59.708,25.229c-27.861-8.022-41.428-23.01-40.71-40.748
			c0.714-17.656,26.705-30.303,55.079-24.329C331.264,213.971,349.067,228.028,347.76,247.746z"/>
	</g>
	<g>
		<g>
			<path fill="#CA6EA0" d="M645.392,170.286c0,0,336.642,281.52,404.021,348.254c0,0,26.131,11.051-20.23,54.116
				s-72.314,69.268-89.159,52.584c-16.845-16.684-400.277-344.547-400.277-344.547s-31.764-20.338,3.457-55.898
				C578.424,189.235,606.159,146.259,645.392,170.286z"/>
		</g>
		<g>
			<path fill="#CA6EA0" d="M602.702,202.157L516.411,75.906c0,0-39.358-50.105-80.104-1.478s18.913,59.517,18.913,59.517
				s-35.257,28.11-20.266,46.665s126.984,66.449,126.984,66.449L602.702,202.157z"/>
		</g>
		<g>
			<path fill="#CA6EA0" d="M1021.588,542.89l117.68,68.356c0,0,2.015,31.657-25.863,44.83c0,0-18.681-11.087-20.463,5.686
				c-1.782,16.773,24.421,42.726,24.421,42.726s-16.612,31.746-31.532,28.092c-14.919-3.654-112.458-144.753-112.458-144.753
				L1021.588,542.89z"/>
		</g>
		<g>
			<path fill="#0070AB" d="M934.423,593.911c-0.644-0.399-1.277-0.822-1.899-1.27c-19.257-13.856-30.343-25.017-48.277-43.552
				c-4.156-4.295-8.274-8.728-12.257-13.016c-5.575-6.001-11.339-12.208-17.216-18.036c-11.381-11.289-23.592-21.615-36.146-32.079
				c-33.052-27.546-67.188-54.951-100.2-81.456c-56.139-45.07-114.188-91.674-168.839-140.514
				c-3.547-3.17-10.927-9.766-5.727-20.136c1.346-2.686,3.41-5.125,6.133-7.249l49.331-38.501
				c5.284-4.125,11.861-9.257,20.022-10.788c8.587-1.613,19.115,3.405,23.46,11.18c5.029,8.99,16.258,15.785,27.12,22.347
				c6.402,3.871,13.02,7.873,18.346,12.346c59.107,49.623,120.226,100.937,183.573,147.031c2.643,1.923,5.292,3.838,7.941,5.755
				c12.331,8.918,25.081,18.14,37.085,28.044c14.791,12.208,28.749,25.701,42.247,38.75l69.108,66.816
				c2.511,2.428,5.952,5.754,7.165,10.505c1.434,5.624-0.576,11.677-5.816,17.502c-7.655,8.507-17.635,13.795-27.288,18.909
				c-2.345,1.243-4.688,2.484-6.99,3.769c-9.36,5.224-15.879,10.508-19.932,16.156c-4.57,6.368-11.405,10.581-19.244,11.863
				C948.59,599.522,940.968,597.969,934.423,593.911z M629.627,199.735c-2.624-1.627-5.848-2.532-8.336-2.065
				c-5.641,1.059-10.644,4.963-15.482,8.738l-49.331,38.502c-1.481,1.155-2.556,2.388-3.195,3.664
				c-1.266,2.528-1.007,3.681,3.329,7.557c54.444,48.655,112.383,95.171,168.414,140.155
				c33.049,26.533,67.223,53.969,100.348,81.577c12.74,10.617,25.142,21.108,36.823,32.692c6.029,5.98,11.869,12.267,17.515,18.347
				c3.946,4.248,8.027,8.641,12.109,12.859c17.517,18.103,28.33,28.995,46.859,42.327c4.658,3.34,10.247,4.702,15.743,3.801
				c5.06-0.828,9.459-3.53,12.387-7.608c5.043-7.03,12.464-13.134,23.354-19.213c2.367-1.323,4.779-2.6,7.194-3.879
				c9.247-4.9,17.983-9.527,24.387-16.647c1.584-1.759,4.137-5.119,3.44-7.847c-0.474-1.857-2.584-3.897-4.28-5.536l-69.104-66.812
				c-13.354-12.91-27.16-26.256-41.633-38.201c-11.744-9.691-24.355-18.813-36.552-27.634c-2.657-1.922-5.314-3.843-7.967-5.773
				c-63.641-46.31-124.902-97.743-184.147-147.481c-4.703-3.95-10.685-7.569-17.024-11.398c-12.027-7.275-24.474-14.8-30.864-26.219
				C632.78,202.151,631.33,200.791,629.627,199.735z"/>
		</g>
		<g>
			<path fill="#0070AB" d="M463.082,199.299c-4.929-3.057-8.556-8.233-9.996-14.305c-1.495-6.298-0.455-12.794,2.852-17.821
				c2.109-3.204,4.787-5.572,7.377-7.864c2.379-2.104,4.626-4.092,5.913-6.37c2.133-3.772,2.146-9.221,0.042-16.66
				c-0.386-1.362-0.805-2.724-1.225-4.088c-1.779-5.783-3.62-11.762-3.29-18.312c0.669-13.264,10.805-25.415,24.651-29.547
				c11.628-3.472,25.242-1.424,37.348,5.619c2.586,1.507,3.369,4.688,1.906,7.202c-1.463,2.515-4.687,3.368-7.202,1.906
				c-9.602-5.585-20.187-7.273-29.038-4.631c-9.491,2.834-16.699,11.236-17.141,19.98c-0.237,4.697,1.257,9.547,2.837,14.682
				c0.444,1.441,0.887,2.881,1.294,4.32c2.909,10.285,2.579,18.369-1.008,24.714c-2.157,3.816-5.317,6.612-8.106,9.079
				c-2.169,1.918-4.219,3.73-5.554,5.762c-1.719,2.612-2.231,6.109-1.404,9.595c0.828,3.486,2.798,6.378,5.566,7.943
				c2.512,1.446,3.386,4.674,1.934,7.196c-1.453,2.521-4.675,3.387-7.196,1.934C463.453,199.525,463.267,199.413,463.082,199.299z"
				/>
		</g>
		<g>
			<path fill="#0070AB" d="M1063.729,708.726c-0.934-0.578-1.826-1.244-2.661-1.991c-2.169-1.94-2.356-5.27-0.417-7.44
				c1.938-2.169,5.264-2.352,7.438-0.417c1.786,1.601,4.118,2.345,6.109,1.966c1.752-0.331,3.356-1.766,3.649-3.268
				c0.519-2.654-1.812-5.342-5.71-9.453c-2.089-2.202-4.247-4.477-5.957-7.117c-4.379-6.758-4.696-14.31-5.001-21.614
				c-0.196-4.659-0.38-9.058-1.616-12.927l-0.205-0.621c-0.616-1.853-1.459-4.389-0.843-7.309c1.287-6.123,6.942-9.018,16.81-8.608
				c10.453,0.433,20.087-3.367,25.768-10.167c5.94-7.103,6.771-17.884,1.89-24.544c-1.72-2.347-1.21-5.644,1.137-7.364
				c2.344-1.72,5.642-1.21,7.363,1.135c7.743,10.568,6.752,26.702-2.303,37.532c-7.769,9.292-20.587,14.503-34.292,13.934
				c-3.848-0.16-5.431,0.255-6.016,0.5c0.094,0.39,0.323,1.075,0.486,1.565l0.242,0.737c1.67,5.22,1.894,10.546,2.108,15.696
				c0.257,6.16,0.501,11.981,3.316,16.326c1.182,1.824,2.919,3.655,4.758,5.595c4.457,4.699,10.006,10.55,8.407,18.723
				c-1.111,5.702-6.06,10.475-12.033,11.604C1071.969,711.99,1067.511,711.071,1063.729,708.726z"/>
		</g>
		<g>
			<path fill="#0070AB" d="M940.232,543.057c-0.138-0.085-0.276-0.173-0.414-0.26c-11.001-6.984-19.132-16.998-26.994-26.683
				c-6.705-8.258-13.037-16.059-20.954-22.042c-9.768-7.385-21.373-11.584-33.661-16.034c-7.126-2.58-14.493-5.248-21.513-8.602
				c-18.633-8.906-34.685-22.589-46.425-39.574c-1.46-2.112-3.022-4.529-4.383-7.198c-10.893-4.739-20.477-12.438-27.346-22.172
				c-2.674-3.791-4.914-7.825-7.079-11.726c-3.624-6.526-7.045-12.689-12.101-17.171c-6.659-5.9-15.666-8.531-25.204-11.31
				c-2.059-0.602-4.113-1.2-6.138-1.831c-32.588-10.162-55.266-30.987-60.711-55.75c-31.452-5.451-53.568-17.507-65.782-35.882
				c-1.611-2.423-0.952-5.694,1.471-7.305c2.422-1.611,5.693-0.954,7.305,1.471c10.182,15.318,28.944,25.657,55.835,30.794
				c0.056-6.365,1.455-12.344,4.146-17.445c5.118-9.703,14.899-15.877,24.918-15.729c11.479,0.177,21.657,9.467,22.229,20.293
				c0.527,9.982-6.69,19.675-17.55,23.575c-7.099,2.549-14.451,2.528-21.247,1.835c6.102,19.334,25.383,35.622,52.521,44.081
				c1.964,0.613,3.956,1.194,5.953,1.776c10.234,2.985,20.822,6.074,29.244,13.541c6.404,5.677,10.429,12.929,14.323,19.941
				c2.124,3.826,4.13,7.439,6.478,10.766c4.013,5.69,9.141,10.551,14.973,14.32c0.006-7.58,4.048-16.273,12.216-19.177
				c4.847-1.722,10.051-0.956,14.832,1.919c6.063,3.803,10.491,10.933,11.281,18.164c0.559,5.11-0.424,9.294-2.918,12.438
				c-2.424,3.052-7.174,6.27-16.228,5.082c10.447,13.955,24.18,25.241,39.931,32.764c6.552,3.132,13.671,5.709,20.557,8.203
				c12.483,4.52,25.386,9.189,36.428,17.535c8.936,6.755,15.974,15.424,22.781,23.807c7.668,9.445,14.91,18.366,24.459,24.427
				c3.234,2.054,8.032,4.342,11.837,3.169c1.8-0.557,3.362-2.302,4.078-4.553c0.716-2.253,0.447-4.58-0.701-6.072
				c-1.774-2.306-1.342-5.615,0.966-7.388c2.307-1.775,5.613-1.344,7.388,0.966c3.267,4.25,4.161,10.114,2.389,15.686
				c-1.771,5.573-5.886,9.846-11.008,11.428C954.387,548.997,947.599,547.625,940.232,543.057z M803.527,400.377
				c-1.971-1.222-3.874-1.521-5.655-0.888c-3.561,1.267-5.436,6.037-5.189,9.918c0.107,1.704,0.511,3.4,1.101,5.051
				c2.364,0.83,4.786,1.495,7.249,1.986c4.008,0.798,7.17,0.448,8.252-0.913c0.679-0.855,0.932-2.584,0.696-4.742
				c-0.44-4.023-3.074-8.291-6.407-10.383C803.559,400.396,803.543,400.386,803.527,400.377z M681.36,271.068
				c-1.885-1.169-4.081-1.889-6.316-1.922c-5.999-0.089-12.204,3.974-15.441,10.109c-2.124,4.026-3.11,8.928-2.912,14.221
				c6.427,0.839,13.491,1.287,19.629-0.916c5.366-1.927,10.901-7.174,10.588-13.101C686.733,276.152,684.472,272.998,681.36,271.068
				z"/>
		</g>
	</g>
</g>
</svg>
